<svg width="336" height="304" viewBox="0 0 336 304" fill="none" xmlns="http://www.w3.org/2000/svg">
<g clip-path="url(#clip0_6_529)">
<path d="M0.675618 249.836C3.60877 248.4 4.85397 244.589 8.03616 243.595C11.3014 242.574 14.9263 244.589 17.9148 242.38C19.2153 241.414 20.1838 239.812 21.7611 239.232C23.1446 238.735 24.5835 239.287 25.9117 239.702C27.0463 240.061 28.1808 240.392 29.3153 240.751C33.8811 242.159 38.4191 243.54 42.9849 244.948C48.1594 246.522 53.3062 248.124 58.4807 249.698C58.9788 249.864 59.2002 249.063 58.7021 248.897C49.2386 245.998 39.8027 243.098 30.3391 240.199C28.1254 239.536 25.8287 238.514 23.532 238.238C21.9271 238.045 20.6542 238.68 19.5197 239.729C17.9424 241.193 16.7526 242.546 14.4559 242.656C12.5466 242.767 10.6649 242.27 8.7556 242.574C4.82629 243.181 3.60876 247.461 0.288219 249.091C-0.209863 249.367 0.205208 250.085 0.675618 249.836Z" fill="#1C1C1C"/>
<path d="M50.4007 246.357C52.3654 246.854 53.915 244.893 55.6859 244.313C58.0657 243.512 60.6114 243.844 62.7698 245.086C63.2402 245.362 63.6553 244.644 63.1848 244.368C61.3585 243.291 59.2832 242.85 57.1802 243.126C56.267 243.236 55.4092 243.485 54.5791 243.844C53.3892 244.368 52.0057 245.887 50.6221 245.556C50.0964 245.418 49.875 246.219 50.4007 246.357Z" fill="#1C1C1C"/>
<path d="M71.7352 244.286C69.8813 242.767 68.1103 241.138 66.45 239.398C65.6752 238.597 64.9281 237.741 64.2087 236.885C63.7936 236.388 63.3785 235.891 62.9911 235.394C62.7144 235.035 62.4377 234.676 62.1887 234.317C61.7459 233.875 61.7459 233.323 62.2163 232.715C62.5484 232.853 63.0742 232.522 62.7974 232.135C61.1095 229.871 59.8643 227.386 59.0618 224.679C58.8958 224.845 58.7298 225.011 58.5637 225.176C59.4769 225.425 60.141 225.894 60.6391 226.668C60.9158 227.109 61.6353 226.723 61.3585 226.253C57.2355 219.129 53.8596 211.618 51.3139 203.803C51.0925 203.941 50.8435 204.079 50.6221 204.217C62.2163 215.594 67.4739 231.417 77.2418 244.148C77.5739 244.562 78.2933 244.148 77.9613 243.733C68.1657 230.948 62.8528 215.07 51.2032 203.637C50.9265 203.361 50.3731 203.637 50.5114 204.051C53.0849 211.949 56.4607 219.516 60.6391 226.695C60.8881 226.557 61.1095 226.419 61.3585 226.281C60.7221 225.315 59.892 224.679 58.7851 224.403C58.4807 224.32 58.1763 224.597 58.287 224.9C59.1172 227.662 60.39 230.23 62.1057 232.55C62.2994 232.356 62.4931 232.163 62.6868 231.97C61.912 231.611 61.0542 231.97 60.8605 232.881C60.6114 234.179 62.1887 235.615 62.9081 236.526C65.3709 239.591 68.1657 242.38 71.2095 244.865C71.5692 245.197 72.1503 244.617 71.7352 244.286Z" fill="#1C1C1C"/>
<path d="M68.8297 227.027C63.7382 219.433 59.6152 211.286 56.5714 202.671C56.4884 202.836 56.3777 203.002 56.2947 203.168C57.2355 202.947 58.038 203.306 58.5637 204.134C58.8404 204.604 59.5045 204.19 59.2832 203.72C54.9941 194.469 50.6221 184.832 50.9265 174.421C50.6774 174.504 50.4007 174.559 50.1517 174.642C57.5399 189.83 64.5684 205.211 71.2095 220.731C71.4032 221.172 72.1226 220.841 71.9566 220.399C70.8497 217.085 69.7706 213.744 68.6637 210.43C68.138 208.801 67.5845 207.2 67.0588 205.57C66.6991 204.493 65.9243 202.146 67.4739 201.566C67.3078 201.511 67.1695 201.428 67.0034 201.373C68.9958 205.266 70.9604 209.16 72.9527 213.054C73.2018 213.523 73.9213 213.109 73.6722 212.64C71.5139 208.415 70.5177 203.748 70.7114 198.998C70.4347 199.026 70.158 199.081 69.9089 199.108C75.6645 213.385 82.3333 227.303 89.8322 240.751C90.0812 241.22 90.8007 240.806 90.5516 240.337C83.0804 226.944 76.4393 213.109 70.7114 198.888C70.5454 198.473 69.9089 198.501 69.9089 198.998C69.7152 203.886 70.7667 208.663 72.9804 213.054C73.2295 212.916 73.4508 212.778 73.6999 212.64C71.7075 208.746 69.7429 204.852 67.7506 200.959C67.6676 200.821 67.4462 200.71 67.2802 200.765C64.513 201.787 66.284 205.736 66.8928 207.586C68.3317 211.922 69.7429 216.285 71.1818 220.62C71.4308 220.51 71.6799 220.399 71.9289 220.289C65.2878 204.769 58.2593 189.388 50.8711 174.2C50.6774 173.814 50.0963 174.035 50.0963 174.421C49.7643 184.97 54.2193 194.773 58.5637 204.134C58.8128 203.996 59.0341 203.858 59.2832 203.72C58.5637 202.588 57.4015 202.091 56.0733 202.367C55.8519 202.422 55.7136 202.671 55.7966 202.864C58.8681 211.535 63.0188 219.764 68.138 227.413C68.4147 227.883 69.1341 227.468 68.8297 227.027Z" fill="#1C1C1C"/>
<path d="M14.1515 280.405C23.7257 275.794 33.8257 271.099 44.7558 272.204C49.9303 272.728 54.9388 274.22 60.0856 274.882C62.6867 275.214 65.3155 275.352 67.9166 275.048C70.3517 274.744 72.6484 273.861 75.0281 273.336C78.0996 272.646 80.8944 273.364 83.8552 274.192C86.2903 274.855 88.6977 275.407 91.2157 274.827C91.7415 274.717 91.5201 273.916 90.9944 274.026C85.9582 275.214 81.2264 271.596 76.1349 272.314C73.6169 272.673 71.2648 273.667 68.7744 274.109C66.1456 274.551 63.4615 274.496 60.8051 274.164C55.5752 273.557 50.4837 272.01 45.2262 271.431C40.0517 270.851 34.9325 271.513 29.9794 272.949C24.3345 274.606 18.9939 277.147 13.7364 279.687C13.2383 279.908 13.6811 280.626 14.1515 280.405Z" fill="#1C1C1C"/>
<path d="M70.324 303.297C73.5615 301.917 76.7437 300.398 79.8152 298.686C81.4202 297.775 82.9974 296.836 84.5747 295.842C85.9859 294.93 87.3971 293.632 88.9467 292.97C90.69 292.252 93.3188 293.605 95.0621 294.13C96.916 294.709 98.77 295.262 100.596 295.842C104.387 297.001 108.178 298.161 111.942 299.321C112.44 299.487 112.661 298.686 112.163 298.52C108.123 297.278 104.055 296.035 100.015 294.792C98.0782 294.185 96.1412 293.605 94.2043 292.997C92.71 292.528 90.8284 291.561 89.2511 291.948C87.7845 292.307 86.4563 293.577 85.2111 294.406C83.6062 295.455 81.9459 296.477 80.2856 297.443C76.9374 299.349 73.4785 301.061 69.9089 302.552C69.4109 302.773 69.8536 303.491 70.324 303.297Z" fill="#1C1C1C"/>
<path d="M104.747 304.154C106.85 303.104 108.953 302.027 111.056 300.978C112.993 299.984 115.068 298.658 117.282 298.465C119.523 298.244 121.267 299.708 123.204 300.564C124.836 301.282 126.607 301.696 128.378 301.806C132.529 302.027 136.403 299.956 140.526 300.177C143.819 300.37 147.139 303.077 150.377 301.365C150.847 301.116 150.432 300.398 149.962 300.647C147.942 301.724 145.756 300.674 143.763 300.039C142.048 299.487 140.387 299.238 138.589 299.432C134.327 299.873 130.426 301.668 126.054 300.647C122.429 299.818 119.662 296.808 115.76 297.94C113.961 298.465 112.274 299.459 110.613 300.288C108.51 301.337 106.407 302.414 104.304 303.463C103.862 303.684 104.277 304.402 104.747 304.154Z" fill="#1C1C1C"/>
<path d="M120.907 298.161C119.191 296.67 117.642 295.013 116.369 293.108C115.788 292.252 115.262 291.34 114.764 290.429C114.515 289.96 114.294 289.49 114.1 289.021C113.934 288.634 113.768 288.275 113.629 287.889C113.38 287.474 113.491 287.088 113.961 286.729C114.211 286.618 114.46 286.508 114.709 286.397C111.665 281.924 109.755 276.843 109.119 271.486C108.87 271.596 108.649 271.679 108.4 271.79C108.898 272.425 109.396 273.06 109.921 273.723C110.226 274.109 110.807 273.612 110.586 273.225C105.771 264.637 103.197 254.972 103.142 245.142C102.893 245.252 102.672 245.335 102.423 245.445C104.304 246.964 105.743 248.842 106.629 251.079C106.878 250.968 107.127 250.858 107.376 250.747C105.217 246.191 104.775 241.055 106.048 236.195C105.771 236.195 105.522 236.195 105.245 236.195C110.918 252.404 116.563 268.586 122.235 284.796C122.401 285.293 123.204 285.072 123.038 284.575C120.187 276.263 118.776 267.537 118.859 258.728C118.61 258.838 118.389 258.921 118.14 259.032C119.828 260.55 120.879 262.456 121.267 264.693C121.35 265.162 122.097 265.052 122.069 264.582C121.986 262.898 121.875 261.186 121.792 259.501C121.571 259.612 121.377 259.75 121.156 259.86C122.623 260.799 122.899 263.284 123.37 264.831C123.868 266.488 124.366 268.144 124.892 269.829C125.915 273.253 126.967 276.65 127.991 280.074C130.066 286.895 132.141 293.743 134.217 300.564C134.383 301.061 135.185 300.867 135.019 300.343C132.778 292.997 130.564 285.624 128.323 278.279C127.244 274.689 126.137 271.099 125.058 267.509C124.504 265.659 123.951 263.837 123.397 261.986C123.038 260.854 122.623 259.832 121.599 259.17C121.35 259.004 120.962 259.225 120.962 259.529C121.045 261.213 121.156 262.925 121.239 264.61C121.516 264.582 121.792 264.527 122.041 264.499C121.654 262.124 120.492 260.053 118.693 258.452C118.417 258.203 118.001 258.369 117.974 258.755C117.891 267.62 119.302 276.429 122.18 284.823C122.457 284.741 122.706 284.685 122.982 284.603C117.31 268.393 111.665 252.211 105.992 236.001C105.854 235.642 105.3 235.587 105.19 236.001C103.861 241.11 104.36 246.439 106.601 251.189C106.795 251.603 107.542 251.3 107.348 250.858C106.407 248.483 104.941 246.467 102.921 244.865C102.644 244.645 102.201 244.783 102.201 245.169C102.257 255.138 104.858 264.969 109.755 273.667C109.977 273.502 110.198 273.336 110.42 273.17C109.921 272.535 109.423 271.9 108.898 271.237C108.676 270.961 108.151 271.182 108.178 271.541C108.815 277.064 110.752 282.283 113.878 286.867C114.155 287.254 114.709 287.005 114.626 286.536C114.487 285.762 113.574 285.486 112.938 285.956C111.775 286.784 112.91 288.745 113.325 289.684C114.902 293.191 117.254 296.256 120.16 298.769C120.741 299.072 121.322 298.493 120.907 298.161Z" fill="#1C1C1C"/>
<path d="M91.9629 236.222C91.6031 231.031 101.039 234.013 103.668 234.51C107.984 235.311 112.274 236.112 116.59 236.913C125.196 238.514 133.829 240.116 142.435 241.718C142.961 241.828 143.182 241.027 142.656 240.917C132.778 239.067 122.927 237.244 113.048 235.394C108.206 234.483 103.363 233.571 98.5209 232.688C96.7777 232.356 94.7577 231.997 93.1251 232.909C91.8798 233.571 91.0497 234.786 91.1604 236.222C91.1604 236.747 92.0182 236.747 91.9629 236.222Z" fill="#1C1C1C"/>
<path d="M136.707 240.806C139.585 241.11 141.356 238.376 143.597 237.051C145.507 235.946 147.167 236.802 149.132 237.189C151.318 237.631 153.559 237.686 155.773 237.41C156.298 237.354 156.298 236.526 155.773 236.581C153.282 236.885 150.792 236.775 148.357 236.167C146.89 235.78 145.562 235.311 144.095 235.891C141.494 236.885 139.723 240.309 136.707 239.978C136.181 239.923 136.181 240.751 136.707 240.806Z" fill="#1C1C1C"/>
<path d="M189.476 293.909C196.117 291.589 202.814 289.269 209.676 287.612C216.843 285.9 224.065 285.21 231.426 285.431C238.703 285.652 245.925 286.48 253.175 287.143C260.453 287.833 267.73 288.496 275.008 289.187C283.365 289.96 291.749 290.733 300.106 291.534C300.631 291.589 300.631 290.761 300.106 290.705C285.191 289.325 270.276 287.944 255.334 286.536C240.972 285.21 226.528 283.249 212.222 286.204C204.363 287.833 196.781 290.484 189.227 293.108C188.757 293.273 188.978 294.074 189.476 293.909Z" fill="#1C1C1C"/>
<path d="M218.725 266.736C223.678 265.687 228.326 263.616 233.003 261.738C238.011 259.75 243.075 258.369 248.443 257.9C253.867 257.43 259.318 257.706 264.714 258.038C270.138 258.369 275.561 258.756 281.012 259.142C287.349 259.612 293.714 260.136 300.05 260.689C300.576 260.744 300.576 259.915 300.05 259.86C288.816 258.866 277.581 258.01 266.319 257.292C255.61 256.602 245.068 256.326 234.857 260.109C229.433 262.125 224.176 264.693 218.476 265.908C218.005 266.046 218.199 266.847 218.725 266.736Z" fill="#1C1C1C"/>
<path d="M282.507 234.897C286.464 231.887 290.642 228.932 295.069 226.668C297.228 225.563 299.552 224.679 301.987 224.486C304.616 224.265 307.245 224.79 309.818 225.121C315.048 225.756 320.306 226.143 325.563 226.474C329.05 226.695 333.477 227.192 335.94 224.155C336.272 223.74 335.691 223.161 335.359 223.575C332.564 227.027 326.67 225.729 322.851 225.48C317.594 225.121 312.392 224.624 307.162 223.961C304.92 223.685 302.707 223.464 300.465 223.879C298.252 224.265 296.176 225.149 294.212 226.198C289.95 228.462 285.91 231.279 282.064 234.206C281.677 234.51 282.092 235.228 282.507 234.897Z" fill="#1C1C1C"/>
<path d="M130.177 230.34C134.106 227.386 138.063 224.458 141.992 221.504C145.756 218.687 149.27 215.732 154.195 215.484C158.844 215.263 163.604 215.788 168.225 216.174C173.206 216.588 178.159 217.141 183.084 217.831C187.235 218.411 192.188 219.957 196.117 217.803C196.588 217.555 196.173 216.837 195.702 217.085C193.682 218.19 191.441 218.19 189.2 217.914C186.792 217.61 184.385 217.196 181.977 216.864C177.329 216.229 172.652 215.705 167.948 215.318C163.327 214.931 158.54 214.379 153.919 214.655C149.63 214.904 146.447 217.113 143.099 219.626C138.644 222.94 134.217 226.281 129.762 229.595C129.347 229.954 129.762 230.672 130.177 230.34Z" fill="#1C1C1C"/>
<path d="M285.855 259.529C286.104 257.706 286.464 255.939 286.99 254.172C287.239 253.343 287.488 252.515 287.82 251.686C288.013 251.189 288.539 250.361 289.259 250.554C289.618 250.665 289.784 251.907 289.812 252.156C289.867 252.598 290.476 252.736 290.614 252.266C291.915 248.041 293.409 243.402 297.394 240.944C297.173 240.834 296.979 240.696 296.757 240.585C296.757 241.276 296.73 241.994 296.73 242.684C296.73 243.071 297.311 243.264 297.505 242.905C299.967 237.796 302.651 232.439 307.632 229.346C307.439 229.181 307.217 229.043 307.023 228.877C304.533 235.311 301.628 241.579 298.335 247.655C298.113 248.041 298.667 248.538 298.999 248.152C300.853 245.943 302.734 243.733 305.169 242.132C304.976 241.938 304.782 241.745 304.588 241.552C301.517 248.014 298.169 254.31 294.488 260.44C294.212 260.909 294.931 261.324 295.208 260.854C298.86 254.724 302.236 248.428 305.308 241.966C305.474 241.635 305.114 241.138 304.727 241.386C302.236 243.043 300.299 245.28 298.39 247.544C298.611 247.71 298.833 247.876 299.054 248.041C302.375 241.911 305.308 235.587 307.826 229.07C307.964 228.739 307.494 228.435 307.217 228.601C302.098 231.776 299.331 237.216 296.785 242.463C297.034 242.546 297.311 242.601 297.56 242.684C297.56 241.994 297.588 241.276 297.588 240.585C297.588 240.282 297.228 240.061 296.951 240.226C292.8 242.794 291.168 247.599 289.812 252.045C290.089 252.073 290.365 252.128 290.614 252.156C290.476 250.747 289.203 248.345 287.654 250.14C286.879 251.051 286.574 252.542 286.242 253.675C285.689 255.497 285.302 257.375 285.025 259.28C284.997 259.833 285.772 260.053 285.855 259.529Z" fill="#1C1C1C"/>
<path d="M92.5164 212.916C94.6747 211.756 96.8607 210.596 99.2405 209.961C101.759 209.298 104.249 209.519 106.767 209.851C111.776 210.513 116.784 211.176 121.765 211.839C122.291 211.922 122.291 211.093 121.765 211.01C116.424 210.292 111.056 209.519 105.716 208.884C103.253 208.58 100.901 208.58 98.521 209.271C96.252 209.933 94.149 211.066 92.0736 212.17C91.6032 212.474 92.046 213.164 92.5164 212.916Z" fill="#1C1C1C"/>
<path d="M260.84 25.6074C262.833 23.923 265.627 24.2543 267.813 25.3313C269.474 26.1321 270.829 27.7614 272.766 27.8442C274.565 27.8994 276.059 26.6844 277.581 25.8836C278.605 25.3589 279.657 24.9999 280.819 25.2484C282.064 25.497 283.143 26.2149 284.278 26.712C288.013 28.3413 290.504 26.0769 293.658 24.2819C294.544 23.7849 295.485 23.3431 296.508 23.2602C297.809 23.1498 298.971 23.7297 300.133 24.2267C301.96 24.9999 303.343 25.3037 305.197 24.5581C307.106 23.8125 308.656 23.923 310.565 24.6133C311.783 25.0551 312.945 25.6074 314.218 25.8836C316.127 26.3254 318.175 26.2149 319.614 24.7514C320.001 24.3648 319.392 23.7849 319.033 24.1715C317.179 26.0493 314.356 25.1656 312.226 24.3372C310.067 23.5087 307.854 22.6251 305.557 23.4811C304.118 24.0334 303.149 24.42 301.6 23.8953C300.548 23.5364 299.58 22.9565 298.501 22.6527C296.868 22.1556 295.346 22.4318 293.852 23.1774C292.136 24.0334 290.642 25.3865 288.843 26.1045C286.464 27.0434 284.61 25.8007 282.451 24.8895C280.874 24.2267 279.38 24.1163 277.803 24.8066C275.893 25.6627 274.039 27.5404 271.798 26.7396C270.608 26.3254 269.667 25.3589 268.588 24.7514C267.675 24.2543 266.679 23.8953 265.655 23.702C263.69 23.3431 261.781 23.6744 260.231 24.9723C259.844 25.3865 260.453 25.9664 260.84 25.6074Z" fill="#1C1C1C"/>
<path d="M270.802 44.468C271.328 44.468 271.328 43.6395 270.802 43.6395C270.276 43.6395 270.276 44.468 270.802 44.468Z" fill="#1C1C1C"/>
<path d="M276.336 47.4779C277.637 45.1307 280.708 46.2629 282.617 47.0361C284.527 47.8093 286.242 48.2787 288.262 47.5884C289.923 47.0085 291.417 45.9039 293.132 45.5173C295.512 44.965 296.868 46.9808 299.026 47.4503C302.402 48.1959 305.806 44.4403 308.988 46.0143C309.874 46.4562 310.482 47.0361 311.534 46.9532C312.502 46.898 313.388 46.4286 314.329 46.2076C316.957 45.6001 319.697 46.0696 322.049 47.3674C322.519 47.616 322.934 46.898 322.464 46.6495C320.97 45.821 319.365 45.324 317.677 45.1583C316.819 45.0755 315.934 45.1031 315.076 45.2411C314.052 45.3792 313.111 45.821 312.115 46.0143C310.759 46.2629 310.178 45.6001 309.071 45.1307C308.518 44.9098 307.909 44.7993 307.328 44.8269C305.944 44.8822 304.616 45.4621 303.343 45.9315C301.711 46.539 299.967 47.1189 298.307 46.2905C296.896 45.6001 295.789 44.5508 294.129 44.5508C290.697 44.5784 288.29 47.8645 284.665 46.8704C281.981 46.1248 277.664 43.5014 275.672 47.0361C275.368 47.5331 276.087 47.9473 276.336 47.4779Z" fill="#1C1C1C"/>
<path d="M249.495 80.5324C251.46 78.986 253.701 79.0688 255.859 80.063C257.049 80.6152 258.322 81.1399 259.567 80.3943C260.287 79.9525 260.757 79.2621 261.615 79.0136C262.528 78.7375 263.497 78.9308 264.382 79.1517C265.959 79.5383 267.481 80.2286 269.114 80.3391C271.051 80.4772 272.822 79.6487 274.703 79.4554C276.723 79.2621 278.135 80.4772 280.016 80.7533C281.843 81.0018 283.254 79.5383 285.08 79.8144C287.294 80.1458 289.48 80.8914 291.666 81.4437C292.192 81.5817 292.413 80.7809 291.887 80.6429C289.591 80.063 287.211 79.1793 284.859 78.9308C282.866 78.7099 281.428 80.3391 279.435 79.7316C277.581 79.1793 276.253 78.3785 274.261 78.6546C272.13 78.9584 270.193 79.7868 268.007 79.3174C266.319 78.9584 264.687 78.1576 262.943 78.0471C262.307 78.0195 261.643 78.0747 261.034 78.3233C260.259 78.627 259.844 79.2621 259.125 79.6764C257.464 80.6429 255.223 78.5994 253.452 78.4613C251.764 78.3233 250.214 78.9032 248.886 79.9249C248.471 80.2839 249.08 80.8638 249.495 80.5324Z" fill="#1C1C1C"/>
<path d="M90.856 20.2779C91.3818 20.2779 91.3818 19.4495 90.856 19.4495C90.3303 19.4495 90.3303 20.2779 90.856 20.2779Z" fill="#1C1C1C"/>
<path d="M93.2911 20.913C93.7892 18.4553 97.0544 20.0293 98.2442 20.7749C99.6001 21.6309 101.039 22.4041 102.699 21.9347C104.498 21.41 105.715 19.8636 107.708 19.7532C109.589 19.6703 111.416 20.5264 113.187 21.0786C114.709 21.5481 116.314 21.8795 117.891 21.4929C119.745 21.051 121.322 19.7532 123.204 19.4218C126.912 18.7866 130.26 21.7966 134.023 20.6368C134.521 20.4711 134.327 19.6703 133.802 19.836C129.872 21.0786 126.137 17.5992 122.152 18.8419C120.104 19.477 118.389 20.913 116.147 20.8301C114.072 20.7473 112.191 19.7532 110.226 19.2561C108.676 18.8695 107.099 18.759 105.605 19.4494C104.747 19.836 104 20.4711 103.142 20.8853C101.731 21.5481 100.541 21.1615 99.2681 20.4435C97.8845 19.6427 96.6946 18.7038 95.0067 18.8419C93.8168 18.9247 92.7653 19.5322 92.5439 20.7473C92.4056 21.2167 93.2081 21.4376 93.2911 20.913Z" fill="#1C1C1C"/>
<path d="M95.8092 182.153C99.102 180.773 102.423 183.23 105.743 183.396C107.459 183.479 109.119 183.065 110.807 182.733C112.938 182.319 114.764 182.291 116.812 183.147C118.057 183.672 119.191 184.003 120.464 183.506C121.184 183.23 121.792 182.761 122.512 182.512C123.314 182.236 124.144 182.181 125.002 182.181C127.963 182.236 130.924 183.258 133.746 181.932C134.217 181.711 133.802 180.994 133.331 181.214C130.315 182.623 126.967 181.076 123.785 181.408C122.263 181.573 121.267 182.457 119.855 182.871C118.167 183.368 116.507 181.932 114.847 181.684C111.277 181.132 107.901 183.12 104.304 182.402C101.426 181.822 98.5209 180.137 95.5878 181.38C95.1174 181.573 95.3388 182.374 95.8092 182.153Z" fill="#1C1C1C"/>
<path d="M35.9841 141.477C38.3987 141.477 40.3561 139.524 40.3561 137.114C40.3561 134.705 38.3987 132.751 35.9841 132.751C33.5694 132.751 31.612 134.705 31.612 137.114C31.612 139.524 33.5694 141.477 35.9841 141.477Z" fill="#0085FF"/>
<path d="M290.476 111.488C292.172 111.488 293.548 110.116 293.548 108.423C293.548 106.73 292.172 105.358 290.476 105.358C288.78 105.358 287.405 106.73 287.405 108.423C287.405 110.116 288.78 111.488 290.476 111.488Z" fill="#0085FF"/>
<path d="M262.833 4.70331C264.086 4.70331 265.102 3.68952 265.102 2.43894C265.102 1.18836 264.086 0.174561 262.833 0.174561C261.579 0.174561 260.564 1.18836 260.564 2.43894C260.564 3.68952 261.579 4.70331 262.833 4.70331Z" fill="#0085FF"/>
<path d="M162.884 201.069C164.443 201.069 165.707 199.808 165.707 198.252C165.707 196.697 164.443 195.436 162.884 195.436C161.325 195.436 160.062 196.697 160.062 198.252C160.062 199.808 161.325 201.069 162.884 201.069Z" fill="#0085FF"/>
<path d="M32.7742 41.0991C34.5622 41.0991 36.0117 39.6526 36.0117 37.8682C36.0117 36.0838 34.5622 34.6373 32.7742 34.6373C30.9861 34.6373 29.5366 36.0838 29.5366 37.8682C29.5366 39.6526 30.9861 41.0991 32.7742 41.0991Z" fill="#0085FF"/>
<path d="M144.4 154.456C145.424 154.456 146.254 153.628 146.254 152.606C146.254 151.584 145.424 150.756 144.4 150.756C143.376 150.756 142.546 151.584 142.546 152.606C142.546 153.628 143.376 154.456 144.4 154.456Z" fill="#0085FF"/>
<path d="M319.392 170.196C320.951 170.196 322.215 168.935 322.215 167.38C322.215 165.824 320.951 164.563 319.392 164.563C317.834 164.563 316.57 165.824 316.57 167.38C316.57 168.935 317.834 170.196 319.392 170.196Z" fill="#0085FF"/>
<path d="M11.7441 216.754C12.9055 216.754 13.8471 215.814 13.8471 214.655C13.8471 213.496 12.9055 212.557 11.7441 212.557C10.5826 212.557 9.64105 213.496 9.64105 214.655C9.64105 215.814 10.5826 216.754 11.7441 216.754Z" fill="#0085FF"/>
<path d="M89.3543 55.9074C86.9469 60.7951 84.5118 65.6828 82.1044 70.5706C92.066 83.9083 102.028 97.2184 111.989 110.556C114.563 106.663 117.108 102.686 119.682 98.682C125.742 89.1827 131.525 79.7938 137.059 70.4877C135.178 65.7105 133.268 60.9056 131.387 56.1283C130.169 55.4931 128.952 54.8856 127.734 54.2505C115.946 54.2781 104.158 54.3057 92.3981 54.3333C91.3466 54.8856 90.3504 55.4103 89.3543 55.9074Z" fill="white"/>
<path d="M82.4365 70.7915C84.5395 66.1799 86.6978 61.5959 88.9115 57.0396C89.1329 56.5701 88.4411 56.1283 88.1921 56.6254C85.9784 61.1817 83.82 65.7657 81.717 70.3773C81.4956 70.8467 82.2151 71.2886 82.4365 70.7915Z" fill="black"/>
<path d="M81.8831 71.2885C91.6233 84.6263 101.557 97.7983 111.685 110.86C112.017 111.274 112.598 110.694 112.266 110.28C102.194 97.2737 92.3151 84.1568 82.6025 70.8743C82.2981 70.4601 81.5787 70.8743 81.8831 71.2885Z" fill="black"/>
<path d="M89.1052 56.5701C90.2674 55.9626 91.4019 55.3275 92.5641 54.7199C93.0345 54.4714 92.6195 53.7534 92.149 54.002C90.9869 54.6095 89.8523 55.2446 88.6901 55.8521C88.1921 56.1283 88.6348 56.8186 89.1052 56.5701Z" fill="black"/>
<path d="M93.2559 54.7752C101.889 54.7752 110.55 54.7752 119.184 54.7752C119.71 54.7752 119.71 53.9468 119.184 53.9468C110.55 53.9468 101.889 53.9468 93.2559 53.9468C92.7302 53.9468 92.7302 54.7752 93.2559 54.7752Z" fill="black"/>
<path d="M137.447 70.4049C135.704 65.7933 133.905 61.237 132.051 56.653C131.857 56.1559 131.055 56.3768 131.248 56.8739C133.102 61.4303 134.901 66.0142 136.644 70.6258C136.838 71.1229 137.641 70.902 137.447 70.4049Z" fill="black"/>
<path d="M136.534 70.8191C128.426 84.074 120.152 97.2461 111.713 110.308C111.408 110.749 112.128 111.164 112.432 110.722C120.872 97.6603 129.145 84.5159 137.253 71.2333C137.53 70.7915 136.81 70.3497 136.534 70.8191Z" fill="black"/>
<path d="M131.553 55.797C130.584 55.1895 129.616 54.5543 128.647 53.9468C128.205 53.6707 127.79 54.361 128.232 54.6648C129.201 55.2723 130.169 55.9074 131.138 56.5149C131.608 56.8187 132.023 56.1007 131.553 55.797Z" fill="black"/>
<path d="M127.707 53.8639C120.484 53.8639 113.262 53.8639 106.068 53.8639C105.542 53.8639 105.542 54.6923 106.068 54.6923C113.29 54.6923 120.512 54.6923 127.707 54.6923C128.232 54.6923 128.232 53.8639 127.707 53.8639Z" fill="black"/>
<path d="M82.7685 71.2057C87.7217 69.0794 92.6748 66.9531 97.628 64.8268C98.1261 64.6059 97.6833 63.9155 97.2129 64.1088C92.2598 66.2351 87.3066 68.3614 82.3535 70.4878C81.8831 70.7087 82.2981 71.4266 82.7685 71.2057Z" fill="black"/>
<path d="M89.2436 56.3216C92.2874 56.791 95.2759 57.4538 98.2367 58.2822C98.7625 58.4203 98.9838 57.6195 98.4581 57.4814C95.4973 56.6253 92.5088 55.9902 89.4649 55.5208C88.9392 55.4379 88.6901 56.2387 89.2436 56.3216Z" fill="black"/>
<path d="M98.0153 58.1441C98.6795 60.2152 99.2605 62.2863 99.7586 64.4126C99.8693 64.9373 100.672 64.7163 100.561 64.1917C100.063 62.0654 99.4819 59.9943 98.8178 57.9232C98.6518 57.4262 97.8493 57.6195 98.0153 58.1441Z" fill="black"/>
<path d="M99.2882 58.227C106.704 58.227 114.092 58.227 121.508 58.227C122.034 58.227 122.034 57.3986 121.508 57.3986C114.092 57.3986 106.704 57.3986 99.2882 57.3986C98.7625 57.3986 98.7625 58.227 99.2882 58.227Z" fill="black"/>
<path d="M121.148 58.3927C120.872 59.9114 120.595 61.4579 120.318 62.9766C120.235 63.5013 121.038 63.7222 121.121 63.1976C121.398 61.6788 121.674 60.1324 121.951 58.6136C122.034 58.0889 121.231 57.868 121.148 58.3927Z" fill="black"/>
<path d="M100.201 64.4678C106.676 64.4678 113.152 64.4678 119.654 64.4678C120.18 64.4678 120.18 63.6394 119.654 63.6394C113.179 63.6394 106.704 63.6394 100.201 63.6394C99.6756 63.6394 99.6756 64.4678 100.201 64.4678Z" fill="black"/>
<path d="M122.311 58.227C125.327 57.5919 128.315 56.9568 131.331 56.3216C131.857 56.2112 131.636 55.4103 131.11 55.5208C128.094 56.1559 125.105 56.7911 122.089 57.4262C121.564 57.5367 121.785 58.3375 122.311 58.227Z" fill="black"/>
<path d="M120.927 64.2193C123.722 64.6611 126.323 66.2351 128.869 67.4226C131.581 68.6928 134.265 69.9631 136.976 71.2333C137.447 71.4543 137.89 70.7363 137.392 70.5154C134.514 69.1623 131.664 67.8368 128.786 66.4837C126.351 65.3239 123.833 63.8603 121.149 63.4185C120.623 63.3356 120.401 64.1364 120.927 64.2193Z" fill="black"/>
<path d="M100.45 65.7381C104.048 80.5394 107.617 95.3683 111.215 110.17C111.353 110.694 112.128 110.473 112.017 109.949C108.42 95.1474 104.85 80.3185 101.253 65.5172C101.115 64.9925 100.312 65.2134 100.45 65.7381Z" fill="black"/>
<path d="M119.765 66.7321C116.389 80.9812 113.594 95.3959 111.436 109.893C111.353 110.418 112.155 110.639 112.238 110.114C114.397 95.6168 117.191 81.2297 120.567 66.953C120.706 66.4284 119.903 66.2075 119.765 66.7321Z" fill="black"/>
<path d="M120.042 39.0903C121.287 35.9146 121.979 32.5733 122.089 29.1491C122.117 28.6244 121.287 28.6244 121.259 29.1491C121.148 32.4905 120.457 35.749 119.239 38.8694C119.045 39.3664 119.848 39.5597 120.042 39.0903Z" fill="black"/>
<path d="M125.714 39.6426C128.371 36.6326 131.359 33.9816 134.707 31.7449C135.15 31.4411 134.735 30.7231 134.292 31.0269C130.889 33.2913 127.817 35.9975 125.133 39.0627C124.773 39.4493 125.354 40.0292 125.714 39.6426Z" fill="black"/>
<path d="M131.165 44.7511C134.597 43.7294 138.139 43.3428 141.708 43.6189C142.234 43.6466 142.234 42.8181 141.708 42.7905C138.056 42.5144 134.458 42.901 130.944 43.9503C130.446 44.116 130.64 44.9168 131.165 44.7511Z" fill="black"/>
<path d="M72.8622 25.3935C73.1943 30.8611 70.1228 36.0803 65.1973 38.4551C64.9206 38.5932 64.9483 39.0074 65.1973 39.1731C69.7077 41.8793 71.7831 46.8499 72.9729 51.7376C73.1113 52.2623 73.8861 52.0414 73.7754 51.5167C72.5302 46.408 70.3165 41.2442 65.6124 38.4551C65.6124 38.7036 65.6124 38.9245 65.6124 39.1731C70.7869 36.6602 74.0521 31.1097 73.6924 25.3935C73.6647 24.8688 72.8346 24.8688 72.8622 25.3935Z" fill="#1C1C1C"/>
<path d="M73.1666 25.3935C72.8068 31.1373 76.072 36.6878 81.2466 39.1731C81.2466 38.9245 81.2466 38.7036 81.2466 38.4551C76.5148 41.2718 74.3011 46.4356 73.0559 51.5719C72.9175 52.0966 73.72 52.3175 73.8584 51.7928C75.0482 46.8775 77.1235 41.8793 81.6616 39.1731C81.9107 39.035 81.9383 38.5932 81.6616 38.4551C76.7361 36.0803 73.637 30.8611 73.969 25.3935C74.0244 24.8688 73.1942 24.8688 73.1666 25.3935Z" fill="#1C1C1C"/>
<path d="M216.29 230.451C217.258 230.037 218.586 229.429 220.108 228.573C222.654 227.165 223.927 226.447 224.702 225.315C225.698 223.823 225.31 223.023 226.611 221.531C226.805 221.283 227.718 220.316 228.908 219.792C230.955 218.936 232.865 219.957 236.047 221.09C238.98 222.139 241.277 222.636 245.87 223.658C247.696 224.072 249.91 224.486 253.12 225.48C254.033 225.756 254.753 226.005 255.251 226.171C255.306 226.751 255.334 228.242 254.365 229.595C253.922 230.202 253.314 230.699 252.345 231.141C250.104 232.191 247.973 231.997 246.175 231.914C242.301 231.749 243.905 232.301 234.774 232.467C232.782 232.494 231.149 232.494 230.015 232.494C228.603 233.461 227.192 234.455 225.753 235.477C223.318 237.244 220.994 239.011 218.78 240.751C217.95 237.327 217.12 233.875 216.29 230.451Z" fill="black"/>
<path d="M204.751 195.105C202.758 196.154 202.537 196.54 195.121 202.837C183.555 212.64 182.282 213.164 171.794 222.305C161.75 231.031 159.868 233.212 157.959 236.084C153.199 243.347 152.148 249.422 151.843 252.377C151.428 256.353 150.875 261.876 154.389 266.239C156.603 268.973 159.481 270.105 160.449 270.464C163.355 271.569 165.734 271.431 170.023 271.127C175.724 270.713 180.068 269.608 181.784 269.139C183.665 268.614 188.037 267.316 193.516 264.61C198.663 262.069 200.877 260.192 207.905 255.47C211.032 253.371 215.653 250.306 221.464 246.771C221.824 244.01 221.519 241.856 221.215 240.503C220.496 237.299 219.029 235.09 217.396 232.66C216.068 230.672 214.795 229.153 213.91 228.159C215.985 226.585 218.697 224.321 221.547 221.283C223.456 219.239 226.473 215.981 228.991 211.397C232.09 205.764 235.189 200.075 233.197 196.154C230.07 189.996 215.183 189.72 204.751 195.105Z" fill="white"/>
<path opacity="0.18" d="M229.544 198.115C227.967 201.76 225.366 206.923 221.215 212.446C215.183 220.427 209.095 224.845 199.908 231.39C173.925 249.891 166.952 254.116 167.727 255.884C168.778 258.286 183.416 253.978 185.547 253.343C201.098 248.759 212.554 241.69 219.721 236.526C217.895 233.737 216.068 230.948 214.242 228.187C216.483 226.585 219.582 224.044 222.488 220.261C224.093 218.19 226.528 214.987 228.105 210.154C229.71 205.349 229.765 201.069 229.544 198.115Z" fill="#9B9797"/>
<path d="M204.64 195.077C194.789 202.395 185.187 210.072 175.945 218.107C171.518 221.946 167.09 225.784 162.94 229.899C159.259 233.544 155.828 237.576 153.753 242.38C151.594 247.351 150.986 253.095 151.511 258.48C151.954 262.926 153.587 267.399 157.654 269.719C161.916 272.121 167.284 271.873 171.988 271.376C177.771 270.796 183.472 269.387 188.867 267.206C200.904 262.318 210.34 253.178 221.713 247.13C222.184 246.882 221.769 246.164 221.298 246.412C211.807 251.466 203.727 258.756 194.208 263.809C189.227 266.46 183.859 268.393 178.325 269.581C173.206 270.658 167.45 271.486 162.248 270.492C159.813 270.022 157.461 269.028 155.717 267.206C154.029 265.411 153.116 263.064 152.646 260.661C151.622 255.442 152.092 249.533 153.808 244.507C155.524 239.481 158.872 235.256 162.524 231.5C166.315 227.607 170.466 224.017 174.534 220.455C184.357 211.839 194.54 203.61 205.055 195.823C205.47 195.491 205.083 194.773 204.64 195.077Z" fill="black"/>
<path d="M177.522 251.686C186.598 248.179 194.817 242.933 202.62 237.189C206.466 234.372 210.257 231.445 214.021 228.518C217.729 225.618 221.27 222.553 224.148 218.825C224.48 218.411 223.761 217.997 223.429 218.411C220.496 222.222 216.815 225.287 213.052 228.242C209.344 231.141 205.609 234.013 201.79 236.802C194.153 242.38 186.156 247.517 177.301 250.913C176.803 251.079 177.024 251.88 177.522 251.686Z" fill="black"/>
<path d="M213.606 228.435C218.946 232.909 221.769 239.84 221.021 246.771C220.966 247.296 221.796 247.296 221.852 246.771C222.599 239.647 219.665 232.467 214.187 227.855C213.799 227.496 213.218 228.076 213.606 228.435Z" fill="black"/>
<path d="M220.966 239.067C222.543 238.597 223.927 237.272 225.255 236.333C226.915 235.173 228.548 234.013 230.208 232.853C230.651 232.55 230.236 231.832 229.793 232.135C228.299 233.185 226.777 234.262 225.283 235.311C223.899 236.278 222.377 237.769 220.745 238.266C220.219 238.404 220.44 239.205 220.966 239.067Z" fill="black"/>
<path d="M216.4 230.837C219.527 229.54 222.405 227.772 225.006 225.591C225.421 225.232 224.812 224.652 224.425 225.011C221.962 227.11 219.195 228.794 216.207 230.037C215.709 230.258 215.93 231.058 216.4 230.837Z" fill="black"/>
<path d="M224.702 225.232C225.227 225.232 225.227 224.403 224.702 224.403C224.176 224.403 224.176 225.232 224.702 225.232Z" fill="black"/>
<path d="M225.698 224.238C226.168 223.133 226.666 221.918 227.552 221.062C228.742 219.902 230.181 220.068 231.702 220.399C234.525 221.034 237.292 221.918 240.059 222.719C242.633 223.437 245.206 224.072 247.862 224.376C249.412 224.541 250.713 224.735 252.096 225.425C253.12 225.922 254.005 226.419 255.14 226.53C255.666 226.585 255.666 225.757 255.14 225.701C253.618 225.563 252.428 224.514 250.989 224.044C249.55 223.575 247.946 223.603 246.451 223.354C243.186 222.829 240.004 221.835 236.849 220.896C235.3 220.455 233.75 220.013 232.173 219.654C231.011 219.405 229.793 219.101 228.631 219.46C226.611 220.068 225.642 222.222 224.895 224.017C224.702 224.514 225.504 224.735 225.698 224.238Z" fill="black"/>
<path d="M230.098 233.461C236.019 232.577 241.885 232.439 247.862 232.329C249.938 232.301 252.151 232.053 253.812 230.699C255.223 229.54 256.025 227.855 255.638 226.06C255.527 225.536 254.725 225.756 254.836 226.281C255.361 228.794 253.092 230.644 250.851 231.197C248.554 231.749 246.064 231.473 243.712 231.528C239.063 231.611 234.47 231.997 229.876 232.688C229.35 232.743 229.599 233.544 230.098 233.461Z" fill="black"/>
<path d="M251.1 227.965C253.148 226.502 255.223 225.038 257.271 223.575C257.409 222.636 257.852 220.592 259.54 218.853C260.038 218.328 261.2 217.113 262.943 216.782C264.77 216.423 266.181 217.251 267.758 217.969C270.304 219.129 272.766 219.571 277.637 220.51C281.483 221.228 283.42 221.587 286.187 221.448C289.95 221.228 292.634 220.233 294.239 221.807C294.405 221.973 295.097 222.719 295.042 223.63C294.959 224.79 293.714 225.535 292.717 226.115C288.373 228.601 285.938 229.319 285.938 229.319C279.795 231.113 276.696 232.025 274.039 232.246C271.881 232.411 268.809 232.494 265.102 231.914C264.022 235.615 260.757 237.989 257.686 237.796C253.729 237.548 250.076 233.102 251.1 227.965Z" fill="black"/>
<path d="M211.364 203.554C211.973 201.704 213.107 199.357 215.238 198.584C216.622 198.087 217.894 198.418 218.309 198.529C220.883 199.164 226.168 198.252 236.711 196.457C241.941 195.574 248.554 194.276 256.164 192.343C256.191 193.751 256.164 195.601 256.081 197.755C255.887 202.588 255.389 206.233 255.278 207.089C254.808 210.513 253.978 216.202 251.46 223.105C250.823 224.873 250.187 226.336 249.744 227.33C250.823 227.827 251.985 228.49 253.12 229.429C257.796 233.157 259.152 238.431 259.595 240.668C258.931 241.469 257.935 242.656 256.662 244.009C251.515 249.477 246.755 252.542 237.679 258.148C232.09 261.6 227.994 264.113 221.436 267.979C213.467 272.673 207.02 276.318 198.995 278.61C197.003 279.19 193.848 279.963 189.863 279.549C187.927 279.356 184.44 278.997 181.092 276.567C176.803 273.474 175.447 268.945 174.893 266.957C173.648 262.511 174.119 258.341 175.281 254.006C176.083 250.968 178.989 240.889 189.089 229.539C191.109 227.275 196.864 222.166 208.32 211.949C211.087 209.491 213.356 207.476 214.878 206.15C213.716 205.266 212.554 204.41 211.364 203.554Z" fill="white"/>
<path opacity="0.18" d="M248.997 195.905C248.361 198.335 247.337 201.842 245.787 205.957C231.647 243.347 200.047 259.501 202.62 263.533C204.502 266.515 222.543 259.087 235.549 251.272C245.289 245.418 252.539 239.149 257.381 234.427C256.607 233.295 255.417 231.749 253.618 230.285C251.875 228.877 250.214 228.021 248.969 227.496C249.827 226.253 250.962 224.376 251.93 221.973C252.567 220.427 253.12 218.77 253.839 215.401C255.002 210.071 255.472 205.846 255.61 204.521C255.942 201.345 256.247 197.231 256.191 192.37C253.784 193.53 251.404 194.718 248.997 195.905Z" fill="#9B9797"/>
<path d="M255.776 192.343C255.804 197.562 255.472 202.781 254.753 207.973C254.088 212.639 253.258 217.444 251.543 221.863C249.689 226.64 246.507 230.119 242.66 233.405C238.731 236.747 234.774 240.033 230.817 243.319C226.279 247.102 221.713 250.858 217.175 254.641C216.76 254.972 217.341 255.552 217.756 255.221C226.085 248.317 234.414 241.441 242.688 234.455C246.34 231.362 249.661 228.159 251.653 223.713C253.59 219.405 254.531 214.683 255.278 210.044C256.219 204.189 256.662 198.28 256.607 192.343C256.607 191.791 255.776 191.791 255.776 192.343Z" fill="black"/>
<path d="M211.835 204.328C212.969 204.935 214.104 205.543 215.266 206.15C215.736 206.399 216.151 205.681 215.681 205.432C214.546 204.825 213.412 204.217 212.25 203.61C211.779 203.361 211.364 204.079 211.835 204.328Z" fill="black"/>
<path d="M215.266 205.819C205.415 213.827 195.066 221.752 186.847 231.473C179.764 239.84 173.925 250.444 173.953 261.683C173.953 266.626 175.309 271.79 178.961 275.297C182.614 278.831 187.899 280.212 192.88 279.963C198.967 279.66 204.751 277.257 210.174 274.606C215.985 271.762 221.492 268.393 227.026 265.052C238.426 258.148 251.155 251.714 259.706 241.193C260.038 240.779 259.457 240.199 259.125 240.613C251.958 249.45 241.885 255.11 232.283 260.909C226.998 264.113 221.768 267.371 216.373 270.409C211.087 273.391 205.581 276.235 199.742 277.92C194.263 279.494 188.148 279.825 182.973 277.092C177.993 274.496 175.447 269.47 174.921 264.002C173.897 252.957 179.459 241.966 186.183 233.571C194.568 223.105 205.525 214.766 215.874 206.371C216.262 206.067 215.681 205.487 215.266 205.819Z" fill="black"/>
<path d="M249.55 227.662C254.752 230.147 258.377 235.062 259.235 240.751C259.318 241.276 260.121 241.055 260.038 240.53C259.18 234.648 255.361 229.484 249.993 226.944C249.495 226.723 249.08 227.441 249.55 227.662Z" fill="black"/>
<path d="M251.211 228.38C252.317 227.938 253.203 227.192 254.144 226.474C255.251 225.618 256.385 224.79 257.492 223.934C257.907 223.602 257.492 222.884 257.077 223.216C256.081 223.961 255.085 224.707 254.088 225.48C253.12 226.226 252.151 227.137 250.989 227.579C250.519 227.772 250.713 228.573 251.211 228.38Z" fill="black"/>
<path d="M257.907 223.602C258.46 221.973 259.125 220.371 260.01 218.88C261.228 216.837 263.054 217.058 265.102 217.582C268.284 218.383 271.328 219.598 274.537 220.316C280.763 221.697 287.156 222.166 293.52 221.752C294.046 221.725 294.046 220.896 293.52 220.924C286.021 221.421 278.467 220.648 271.217 218.604C269.474 218.107 267.786 217.472 266.042 216.975C264.714 216.588 263.137 216.146 261.753 216.423C260.508 216.671 259.789 217.61 259.18 218.659C258.322 220.151 257.658 221.752 257.105 223.381C256.939 223.878 257.741 224.099 257.907 223.602Z" fill="black"/>
<path d="M259.097 236.94C261.172 235.366 263.22 233.792 265.295 232.218C265.71 231.887 265.295 231.169 264.88 231.5C262.805 233.074 260.757 234.648 258.682 236.222C258.267 236.553 258.682 237.271 259.097 236.94Z" fill="black"/>
<path d="M265.268 232.025C272.019 233.488 278.909 232.384 285.302 229.954C288.207 228.849 291.528 227.606 294.018 225.729C295.761 224.431 296.01 221.946 293.714 221.062C293.215 220.869 292.994 221.669 293.492 221.863C294.737 222.332 294.876 223.685 294.018 224.624C293.603 225.094 293.022 225.397 292.468 225.729C291.334 226.364 290.172 226.944 289.009 227.496C286.547 228.656 284.001 229.65 281.372 230.423C276.198 231.914 270.774 232.411 265.461 231.252C264.963 231.113 264.742 231.914 265.268 232.025Z" fill="black"/>
<path d="M199.584 110.766C204.048 107.625 210.637 103.929 219.189 102.104C223.197 101.254 228.219 100.206 234.687 101.265C244.607 102.898 251.093 108.335 253.381 110.314C256.971 113.392 259.334 116.54 260.773 118.73C259.57 138.053 258.474 157.412 257.491 176.751C257.192 182.711 256.891 188.698 256.62 194.66C252.514 196.776 246.811 199.073 239.734 200.127C223.167 202.573 210.009 196.559 204.706 193.735C205.059 188.86 205.328 181.514 204.524 172.615C203.223 157.999 199.897 151.895 198.494 139.294C197.809 132.787 197.43 123.063 199.584 110.766Z" fill="#0085FF"/>
<path d="M249.09 119.424C247.622 120.805 247.242 122.465 246.822 128.914C246.348 135.69 246.346 140.344 246.147 145.729C246.01 149.624 245.907 152.718 245.51 156.731C245.032 161.79 244.376 165.922 243.855 168.679C240.915 171.496 238.33 173.676 236.404 175.243C232.077 178.755 227.368 182.542 220.582 185.918C217.899 187.231 215.606 188.16 214.062 188.732C212.728 188.406 211.236 187.958 209.613 187.415C205.773 186.118 204.214 185.11 201.262 184.88C200.38 184.811 197.593 184.593 197.24 185.563C196.927 186.369 198.371 187.784 199.535 188.512C200.621 189.178 201.131 189.052 202.221 189.663C203.443 190.368 204.202 191.314 204.647 192.013C204.064 192.716 203.176 193.782 202.179 195.172C201.025 196.799 200.753 197.443 199.408 199.387C197.999 201.438 197.28 202.462 196.686 202.969C195.768 203.701 195.231 203.825 191.263 205.233C187.323 206.642 186.631 206.976 186.594 207.444C186.557 207.912 187.294 208.08 190.147 209.577C192.467 210.783 192.671 211.021 193.884 211.476C195.395 212.037 196.311 212.385 197.462 212.226C199.283 212.008 200.547 210.75 201.099 210.073C201.33 210.312 201.901 210.828 202.698 210.918C203.333 210.967 203.876 210.76 204.316 210.462C206.151 209.359 207.184 207.141 209.095 204.714C209.433 204.297 210.635 202.757 212.515 201.076C213.681 200.003 214.741 199.228 215.504 198.705C216.486 198.561 217.947 198.342 219.696 197.98C226.493 196.6 231.471 194.69 235.65 193.077C238.083 192.131 240.847 190.852 246.346 188.317C251.126 186.115 253.61 184.868 255.926 182.224C256.17 181.938 257.42 180.512 258.587 178.36C258.944 177.695 260.211 175.329 261.126 171.08C261.55 169.202 261.632 168.156 262.124 162.211C262.77 154.645 262.699 155.553 262.76 154.782C263.598 143.685 262.942 144.631 263.544 134.43C263.592 133.464 263.768 130.846 263.226 127.48C262.651 123.835 261.699 122.154 261.155 121.308C260.462 120.229 259.619 118.944 258.072 118.131C255.249 116.609 251.278 117.351 249.09 119.424Z" fill="white"/>
<path opacity="0.25" d="M258.102 118.106C258.594 120.332 259.149 123.533 259.404 127.376C259.707 132.025 259.56 137.11 257.036 150.236C254.931 161.206 253.891 166.692 251.887 171.743C249.021 178.943 246.947 184.182 241.567 188.027C238.099 190.499 234.441 191.487 227.101 193.434C221.715 194.87 217.132 195.62 213.989 196.067C211.55 198.868 207.972 202.383 203.031 205.598C199.17 208.122 195.516 209.775 192.516 210.87C192.908 211.178 194.533 212.413 196.874 212.291C199.605 212.144 201.218 210.331 201.494 209.993C201.988 210.419 202.728 210.892 203.594 210.821C205.381 210.684 206.515 208.252 207.072 207.16C208.275 204.899 210.568 201.838 215.423 198.671C218.52 198.11 222.725 197.22 227.64 195.775C234.488 193.734 239.151 191.606 244.159 189.31C252.192 185.616 254.067 183.99 255.469 182.382C258.03 179.452 259.245 176.334 259.768 174.962C260.709 172.515 261.066 169.718 261.77 164.261C262.281 160.201 262.526 157.063 262.711 154.695C263.029 150.621 263.183 147.586 263.304 144.964C263.491 141.156 263.618 136.679 263.484 131.295C263.373 127.381 263.19 125.816 262.442 124.012C261.306 121.154 259.429 119.234 258.102 118.106Z" fill="#9B9797"/>
<path d="M248.684 119.282C246.97 122.748 246.504 126.59 246.288 130.423C246.042 134.642 245.935 138.844 245.8 143.071C245.519 151.635 245.127 160.219 243.442 168.646C243.346 169.165 244.173 169.23 244.269 168.711C245.912 160.474 246.347 152.06 246.612 143.688C246.741 139.543 246.843 135.397 247.057 131.231C247.259 127.23 247.655 123.217 249.467 119.564C249.699 119.084 248.916 118.801 248.684 119.282Z" fill="black"/>
<path d="M245.098 168.055C242.45 169.261 240.249 171.139 238.125 173.106C235.822 175.225 233.524 177.289 230.992 179.141C225.808 182.974 220.075 186.017 214.016 188.258C213.502 188.439 213.888 189.19 214.374 189.006C220.204 186.858 225.731 183.965 230.76 180.342C233.258 178.57 235.577 176.591 237.82 174.523C240.155 172.351 242.491 170.151 245.426 168.829C245.946 168.565 245.588 167.817 245.098 168.055Z" fill="black"/>
<path d="M214.205 188.328C211.22 187.458 208.209 186.558 205.228 185.633C203.737 185.184 202.224 184.65 200.701 184.254C199.748 184.014 198.734 183.851 197.835 184.335C196.445 185.085 196.322 186.654 197.435 187.683C198.237 188.438 199.317 188.827 200.311 189.237C201.926 189.89 203.281 190.66 204.247 192.148C204.546 192.587 205.296 192.23 204.997 191.791C204.128 190.477 203.038 189.506 201.589 188.866C200.597 188.429 199.483 188.12 198.586 187.524C197.952 187.114 197.139 186.497 197.713 185.544C198.255 184.645 199.435 184.82 200.28 185.025C202.544 185.534 204.782 186.373 207.031 187.075C209.335 187.781 211.641 188.46 213.947 189.139C214.437 189.26 214.72 188.479 214.205 188.328Z" fill="black"/>
<path d="M203.575 192.234C202.187 194.369 200.773 196.475 199.385 198.61C198.694 199.636 198.08 200.752 197.281 201.742C196.452 202.757 195.416 203.23 194.214 203.691C191.956 204.539 189.546 205.182 187.357 206.202C186.376 206.679 185.692 207.623 186.417 208.649C187.317 209.91 189.312 209.595 190.654 209.478C192.498 209.318 194.284 208.848 195.999 208.206C199.576 206.824 202.703 204.464 205.049 201.434C205.387 201.018 204.702 200.549 204.364 200.965C202.292 203.684 199.546 205.797 196.414 207.158C194.921 207.79 193.329 208.275 191.729 208.51C190.829 208.661 189.876 208.781 188.936 208.735C188.076 208.723 187.847 208.816 187.5 207.93C187.014 207.394 187.095 207.068 187.715 206.95C187.915 206.883 188.086 206.813 188.286 206.745C190.116 206.057 191.972 205.399 193.802 204.711C195.231 204.185 196.625 203.74 197.66 202.575C198.877 201.202 199.785 199.528 200.793 198C201.958 196.235 203.122 194.47 204.257 192.731C204.544 192.255 203.859 191.786 203.575 192.234Z" fill="black"/>
<path d="M215.711 199.248C223.238 197.758 230.598 195.563 237.706 192.684C241.233 191.242 244.687 189.656 248.074 187.871C251.113 186.28 254.319 184.675 256.605 182.056C256.943 181.639 256.258 181.17 255.92 181.587C253.541 184.337 250.027 185.974 246.846 187.609C243.608 189.267 240.27 190.779 236.888 192.149C229.983 194.906 222.853 197.008 215.551 198.46C215.045 198.531 215.204 199.347 215.711 199.248Z" fill="black"/>
<path d="M249.178 120.068C251.818 115.759 257.615 117.237 260.262 120.657C263.437 124.782 263.162 130.439 263.165 135.37C263.157 146.144 262.479 156.949 260.981 167.606C260.244 172.784 259.041 178.229 255.243 182.088C254.879 182.475 255.414 183.098 255.777 182.711C259.187 179.21 260.632 174.559 261.443 169.858C262.496 163.847 262.975 157.707 263.395 151.619C263.837 145.255 264.032 138.844 263.947 132.467C263.878 127.67 263.433 122.345 259.735 118.871C256.58 115.91 250.946 115.553 248.465 119.597C248.208 120.048 248.893 120.517 249.178 120.068Z" fill="black"/>
<path d="M189.872 209.888C191.815 210.954 194.136 212.52 196.425 212.699C198.634 212.844 200.404 211.154 202.001 209.894C206.587 206.263 211.172 202.633 215.756 199.03C216.17 198.702 215.636 198.079 215.222 198.407C211.345 201.483 207.471 204.532 203.595 207.609C201.881 208.943 200.063 210.906 197.978 211.657C195.521 212.545 192.417 210.364 190.368 209.235C189.89 208.948 189.421 209.631 189.872 209.888Z" fill="black"/>
<path d="M201.146 210.187C201.923 211.965 203.99 211.434 205.104 210.33C207.302 208.12 209.098 205.379 211.009 202.953C211.347 202.536 210.662 202.067 210.324 202.484C209.123 203.996 207.923 205.509 206.722 207.022C206.046 207.855 202.998 212.409 201.895 209.83C201.683 209.343 200.934 209.7 201.146 210.187Z" fill="black"/>
<path d="M194.851 208.338C195.644 208.844 196.63 209.364 197.575 208.994C198.063 208.783 198.287 208.413 198.542 207.99C198.986 207.276 199.417 206.728 200.171 206.316C200.636 206.048 200.278 205.3 199.813 205.568C199.117 205.957 198.522 206.465 198.08 207.15C197.763 207.652 197.548 208.272 196.827 208.271C196.298 208.285 195.745 207.91 195.32 207.655C194.896 207.4 194.401 208.054 194.851 208.338Z" fill="black"/>
<path d="M201.48 50.5871C200.362 52.4664 199.14 55.6671 198.753 56.7171C198.191 58.2244 196.916 61.7533 195.991 66.5005C195.481 69.1198 194.924 71.9846 194.901 75.8329C194.897 77.6607 194.867 80.539 195.665 84.1744C196.193 86.6531 196.969 90.2314 199.531 94.0322C201.77 97.3371 204.459 99.5137 206.629 100.874C208.061 101.014 209.806 101.067 211.765 100.86C215.292 100.47 218.097 99.3876 220 98.4836C220.138 99.9071 220.353 101.42 220.647 102.994C221.252 106.254 222.081 109.144 222.94 111.648C224.087 111.544 225.464 111.319 226.95 110.771C231.668 109.006 234.152 105.267 235.052 103.703C234.763 102.074 234.567 100.314 234.403 98.5005C233.877 91.7287 234.62 85.7762 235.66 80.9825C236.225 81.2204 237.143 81.5415 238.306 81.5769C240.579 81.6159 242.221 80.4976 243.045 79.8972C243.75 79.3983 246.965 76.9627 247.165 72.9897C247.21 72.0515 247.333 69.7621 245.802 68.3961C244.373 67.1489 242.3 67.4024 240.786 67.5889C239.048 67.8133 237.723 68.43 236.912 68.8652C237.64 67.0108 239.234 62.2327 237.884 56.4214C237.592 55.1799 235.628 47.271 228.33 43.3495C218.424 37.978 205.564 43.7875 201.48 50.5871Z" fill="white"/>
<path opacity="0.24" d="M232.641 53.1867C232.661 55.7643 232.537 59.4938 231.807 63.8685C229.578 77.1282 223.556 85.9924 221.996 88.1972C219.625 91.5574 215.638 96.398 209.507 100.988C211.234 100.901 213.223 100.669 215.378 100.089C221.303 98.5023 225.438 95.3075 227.713 93.1862C227.64 96.255 227.874 100.013 228.797 104.184C229.213 105.962 229.695 107.606 230.218 109.087C231.829 107.301 233.412 105.514 235.024 103.701C234.86 101.888 234.733 99.9666 234.692 97.9968C234.52 92.0282 234.946 86.5771 235.655 81.7576C236.895 81.8821 238.696 81.912 240.658 81.3173C249.247 78.6643 255.018 65.9027 251.08 58.3936C250.911 58.0757 250.038 56.4565 248.104 54.9205C242.117 50.1875 233.838 52.7816 232.641 53.1867Z" fill="#9B9797"/>
<path d="M199.038 55.9085C198.635 53.9658 198.146 50.2714 199.295 45.8739C199.65 44.5168 200.852 40.1512 204.159 36.8918C208.999 32.1455 214.496 33.5442 221.926 31.5208C226.632 30.2541 233.189 27.3315 240.189 19.7902C239.378 22.7183 238.564 25.6739 237.752 28.6019C238.724 28.9548 242.006 29.9313 245.558 28.519C251.458 26.1822 252.479 19.5036 252.531 19.2029C253.1 20.7985 254.075 24.3092 253.183 28.6159C252.565 31.5591 251.315 33.705 250.437 34.9937C250.74 35.3775 252.364 37.3323 254.427 37.2165C256.935 37.08 259.517 33.8747 259.197 29.4456C259.622 31.113 260.075 33.8352 259.654 37.0984C259.122 41.0731 257.563 43.9705 256.553 45.5259C256.759 45.7358 258.067 47.1121 260.073 47.0194C261.828 46.9349 263.417 45.7849 264.136 44.0406C263.854 45.8744 263.314 48.519 262 51.4909C260.215 55.5063 258.975 55.7418 258.138 58.6402C256.812 63.19 259.172 64.9531 258.187 69.031C257.365 72.4567 254.933 74.455 251.846 77.0115C246.239 81.6424 240.04 83.9005 234.901 85.0226C235.242 83.4981 235.61 81.9758 235.952 80.4513C236.556 80.8863 237.619 81.4955 239.002 81.5482C241.825 81.6578 243.786 79.2904 244.829 78.0146C246.023 76.5845 248.019 74.1366 247.27 71.2807C246.647 68.9607 244.595 67.8587 244.409 67.7611C242.008 66.521 238.734 67.2072 236.468 69.5784C235.664 64.9454 234.885 60.342 234.081 55.709C230.357 52.9253 226.659 50.1714 222.935 47.3877C221.032 46.879 215.819 45.7517 209.711 47.9061C203.545 50.0837 200.16 54.3342 199.038 55.9085Z" fill="#0085FF"/>
<path d="M198.633 55.7659C195.604 64.3375 193.471 73.533 194.924 82.6485C196.122 90.0544 199.944 98.6901 207.373 101.652C207.857 101.856 208.14 101.075 207.656 100.871C200.199 97.9068 196.596 88.9558 195.591 81.5649C194.41 72.8861 196.504 64.1862 199.388 56.0465C199.593 55.5639 198.81 55.2812 198.633 55.7659Z" fill="black"/>
<path d="M207.991 101.562C220.81 101.261 232.147 92.9231 236.098 80.7119C236.249 80.1975 235.494 79.9169 235.315 80.4292C231.479 92.2339 220.541 100.437 208.055 100.736C207.527 100.75 207.435 101.574 207.991 101.562Z" fill="black"/>
<path d="M235.363 80.8762C240.775 84.7888 246.888 77.9538 247.644 72.8886C248.048 70.2057 246.968 68.044 244.352 67.0641C241.925 66.1545 239.164 66.6867 237.252 68.4209C236.863 68.7783 237.397 69.4017 237.786 69.0442C239.371 67.5892 241.631 67.0733 243.719 67.7072C244.803 68.0411 245.97 68.7416 246.527 69.7822C247.133 70.9098 246.934 72.39 246.676 73.5608C245.681 77.7764 240.458 83.5176 235.835 80.1652C235.413 79.8829 234.916 80.5642 235.363 80.8762Z" fill="black"/>
<path d="M235.312 80.8168C233.641 88.3587 233.423 96.125 234.659 103.755C234.756 104.289 235.573 104.132 235.476 103.598C234.257 96.107 234.464 88.4784 236.095 81.0995C236.191 80.5807 235.408 80.298 235.312 80.8168Z" fill="black"/>
<path d="M219.577 98.5615C220.084 103.088 221.071 107.514 222.565 111.841C222.747 112.354 223.498 111.969 223.314 111.484C221.841 107.242 220.878 102.873 220.394 98.4037C220.325 97.872 219.535 98.0319 219.577 98.5615Z" fill="black"/>
<path d="M223.135 111.996C228.526 111.558 233.309 108.248 235.712 103.422C235.944 102.942 235.161 102.659 234.929 103.139C232.656 107.726 228.06 110.774 222.977 111.18C222.446 111.222 222.605 112.038 223.135 111.996Z" fill="black"/>
<path d="M220.164 99.5766C221.291 99.72 222.123 99.0095 223.03 98.4155C224.23 97.6229 225.379 96.7708 226.45 95.8573C228.442 94.1571 230.097 92.1536 231.252 89.8063C231.484 89.3258 230.701 89.0431 230.469 89.5236C229.446 91.6042 227.974 93.4004 226.245 94.9273C225.467 95.6421 224.641 96.27 223.787 96.8958C222.846 97.5702 221.466 98.9027 220.228 98.7507C219.706 98.6822 219.642 99.5081 220.164 99.5766Z" fill="black"/>
<path d="M220.254 99.1407C222.717 97.8096 225.031 96.2454 227.221 94.5052C227.635 94.1774 227.103 93.5265 226.687 93.8818C224.555 95.5988 222.299 97.1122 219.893 98.4201C219.405 98.6312 219.791 99.3815 220.254 99.1407Z" fill="black"/>
<path d="M207.143 58.0371C205.05 64.9367 203.61 71.9982 202.856 79.1686C202.824 79.5815 203.365 79.7623 203.611 79.4492C204.821 77.8263 206.032 76.1759 207.241 74.553C207.551 74.1341 206.869 73.6376 206.556 74.084C205.347 75.7069 204.136 77.3573 202.926 78.9802C203.168 79.0822 203.44 79.1588 203.682 79.2608C204.429 72.1729 205.865 65.1665 207.924 58.3473C208.077 57.8053 207.294 57.5226 207.143 58.0371Z" fill="black"/>
<path d="M205.772 89.8109C205.207 88.5203 204.869 87.1643 204.868 85.7517C204.863 84.7541 205.397 80.7519 207.148 82.4951C208.075 83.4261 207.791 85.2874 207.722 86.5285C207.676 87.1066 207.629 87.7123 207.529 88.2861C207.469 88.6969 207.382 89.1056 207.269 89.4845C206.513 89.9241 205.963 89.8535 205.645 89.3024C205.317 88.889 204.665 89.4197 205.021 89.8353C206.112 91.1393 207.653 91.315 208.132 89.4412C208.486 88.1116 208.598 86.68 208.593 85.3224C208.594 84.2422 208.714 82.7005 207.979 81.8121C206.887 80.5081 205.116 81.5055 204.546 82.7628C203.51 85.0086 204.11 87.9915 205.05 90.17C205.234 90.6552 205.984 90.2983 205.772 89.8109Z" fill="black"/>
<path d="M213.418 65.4793C213.942 69.4258 219.022 70.1272 220.819 66.6667C221.051 66.1862 220.268 65.9035 220.036 66.384C218.567 69.2053 214.637 68.3444 214.235 65.3216C214.163 64.8174 213.348 64.9476 213.418 65.4793Z" fill="black"/>
<path d="M212.536 55.7991C213.767 53.5409 216.559 52.6232 219.001 53.3402C221.523 54.0912 223.327 56.2263 224.426 58.5004C224.666 58.9899 225.415 58.633 225.176 58.1434C223.909 55.5239 221.766 53.113 218.821 52.4398C216.175 51.8454 213.207 52.8878 211.853 55.3026C211.592 55.8085 212.277 56.2774 212.536 55.7991Z" fill="black"/>
<path d="M196.299 55.4452C197.164 53.9617 198.592 52.3836 200.493 52.5597C202.312 52.7295 203.511 54.4296 204.312 55.9048C204.554 56.3668 205.303 56.0099 205.062 55.5478C204.144 53.7866 202.707 51.9294 200.558 51.7338C198.353 51.5339 196.666 53.2303 195.641 54.9784C195.357 55.427 196.042 55.896 196.299 55.4452Z" fill="black"/>
<path d="M200.208 68.2979C200.696 68.336 201.232 66.555 201.407 64.3199C201.581 62.0848 201.328 60.242 200.84 60.2039C200.353 60.1659 199.816 61.9469 199.641 64.182C199.467 66.4171 199.72 68.2599 200.208 68.2979Z" fill="black"/>
<path d="M200.058 110.646C199.97 111.668 199.853 113.075 199.79 114.704C199.515 120.281 199.717 124.507 199.795 125.64C199.999 129.313 200.475 134.121 201.612 139.704C200.499 140.969 198.83 142.839 196.689 145.039C192.63 149.245 190.544 151.389 187.213 153.61C183.494 156.079 180.917 156.84 179.532 157.192C177.787 157.599 176.125 157.977 174.107 157.526C170.817 156.765 168.864 154.326 168.149 153.384C166.333 151.056 165.929 148.79 165.202 144.368C164.663 141.135 164.564 138.677 164.42 133.926C164.348 131.661 164.25 128.9 164.322 125.2C164.397 121.03 164.641 116.088 165.275 110.568C165.564 108.084 165.965 105.021 166.59 101.544C166.123 100.879 165.628 100.214 165.105 99.5215C164.555 98.801 164.032 98.1082 163.482 97.4153C162.065 98.5962 160.676 99.8048 159.26 100.986C158.899 101.122 158.262 101.34 157.487 101.254C156.021 101.109 155.168 100.083 154.866 99.7503C153.517 98.1976 153.72 96.2379 153.777 95.8516C155.696 93.7894 157.614 91.7547 159.561 89.6927C159.594 88.5054 159.767 86.9598 160.246 85.2499C160.611 83.9813 161.059 82.934 161.478 82.0523C161.841 81.336 162.343 80.5375 162.983 79.7396C164.124 78.2537 165.347 77.21 166.346 76.4966C165.542 76.8519 165.348 76.851 165.293 76.7955C165.156 76.574 166.464 74.9508 168.291 74.7935C169.315 74.6878 170.116 75.0781 170.668 75.3292C171.524 75.7474 172.103 76.2747 172.461 76.663C174.183 75.2074 175.906 73.7518 177.628 72.3238C178.235 72.6856 178.842 73.1026 179.449 73.5196C180.855 74.4927 182.124 75.465 183.254 76.4092C182.836 76.9319 182.308 77.5094 181.641 78.0862C180.53 79.0476 179.42 79.6224 178.561 80.005C179.086 80.1731 180.025 80.564 180.491 81.4775C180.957 82.3633 180.759 83.3289 180.477 84.5426C180.279 85.3702 180.027 86.0318 179.831 86.4727C179.937 87.633 179.985 89.2073 179.644 90.973C179.105 93.8701 177.878 96.0183 177.042 97.2571C177.009 98.3339 176.974 100.018 177.02 102.09C177.201 110.623 178.424 115.627 179.197 121.927C179.651 125.519 180.096 130.851 179.927 137.56C180.565 137.149 181.482 136.49 182.509 135.639C185.121 133.47 186.791 131.296 188.992 128.103C191.164 124.992 192.586 122.679 194.51 119.595C195.709 117.585 197.633 114.529 200.058 110.646Z" fill="white"/>
<path opacity="0.24" d="M175.022 85.3182C174.435 86.5857 173.848 87.8809 173.261 89.2037C171.554 93.1723 170.153 96.9766 169.002 100.616C168.726 106.359 168.565 111.163 168.439 114.642C168.276 119.916 168.579 126.213 169.129 138.808C169.354 144.001 169.561 147.15 171.986 149.453C174.52 151.84 178.062 151.911 180.054 151.92C190.68 151.942 198.663 142.949 200.861 140.336C197.877 145.348 194.486 148.618 192.181 150.541C189.57 152.71 186.209 155.428 181 156.757C176.595 157.897 174.604 157.639 174.079 157.526C170.292 156.597 168.204 153.44 167.462 152.359C165.675 149.672 165.107 146.881 164.803 140.887C164.499 134.727 164.867 133.1 165.017 124.623C165.137 116.532 164.843 114.239 165.478 108.636C165.853 105.352 166.308 102.647 166.676 100.827C165.602 99.6894 164.528 98.5523 163.454 97.4427C162.538 98.2393 161.593 99.0081 160.649 99.8046C160.037 100.326 159.399 100.848 158.788 101.342C158.234 101.395 157.432 101.364 156.575 101.001C154.366 100.052 152.995 97.3115 153.691 96.3758C154.137 95.7427 155.297 96.2451 156.902 96.2526C159.669 96.293 161.529 94.8933 165.222 92.2593C167.832 90.366 170.83 88.2535 175.022 85.3182Z" fill="#9B9797"/>
<path d="M199.699 110.424C193.267 119.203 188.488 129.288 180.373 136.761C179.984 137.119 180.563 137.701 180.952 137.344C189.122 129.815 193.929 119.675 200.417 110.841C200.751 110.428 200.033 110.011 199.699 110.424Z" fill="black"/>
<path d="M175.681 158.169C186.642 157.502 194.543 148.37 201.165 140.613C201.499 140.201 200.92 139.618 200.586 140.031C194.159 147.623 186.369 156.699 175.712 157.368C175.159 157.366 175.155 158.194 175.681 158.169Z" fill="black"/>
<path d="M170.839 80.3559C170.884 82.5377 172.314 84.4221 174.414 85.0393C174.939 85.1798 175.165 84.38 174.639 84.2395C172.898 83.7344 171.716 82.1549 171.669 80.3597C171.644 79.835 170.813 79.8311 170.839 80.3559Z" fill="black"/>
<path d="M171.698 80.1113C171.986 77.7102 176.266 79.4697 177.426 80.0826C178.558 80.6678 179.689 81.2529 179.932 82.6348C180.121 83.685 179.784 84.788 179.502 85.8085C179.362 86.3325 180.163 86.5571 180.304 86.0331C180.698 84.6542 181.12 83.0821 180.545 81.7263C179.998 80.3431 178.479 79.7009 177.237 79.0876C175.967 78.4742 174.585 78.026 173.146 78.185C172.564 78.2652 171.816 78.3998 171.344 78.7842C170.844 79.1685 170.954 79.4452 170.867 80.1351C170.81 80.6319 171.64 80.6358 171.698 80.1113Z" fill="black"/>
<path d="M179.226 85.6414C179.134 87.7397 179.595 89.7853 179.087 91.8817C178.608 93.8125 177.658 95.603 176.71 97.3384C176.458 97.8067 177.176 98.2242 177.427 97.7559C178.404 95.9379 179.381 94.0922 179.888 92.1063C180.424 89.9548 179.963 87.8264 180.057 85.6453C180.087 85.0931 179.257 85.0893 179.226 85.6414Z" fill="black"/>
<path d="M176.709 97.366C176.006 111.916 180.118 126.184 179.387 140.733C179.357 141.258 180.187 141.262 180.217 140.737C180.948 126.188 176.836 111.919 177.54 97.3698C177.57 96.8453 176.74 96.8414 176.709 97.366Z" fill="black"/>
<path d="M163.122 97.6068C163.946 98.7704 164.827 99.8791 165.818 100.905C166.176 101.294 166.76 100.716 166.402 100.328C165.466 99.3297 164.613 98.3041 163.843 97.1959C163.513 96.7525 162.792 97.1634 163.122 97.6068Z" fill="black"/>
<path d="M166.29 100.687C164.671 109.654 163.854 118.763 163.839 127.876C163.846 132.405 164.046 136.962 164.468 141.465C164.81 145.305 165.234 149.339 167.239 152.717C169.051 155.791 172.25 158.125 175.903 158.059C176.429 158.034 176.433 157.206 175.907 157.231C170.787 157.345 167.515 152.774 166.346 148.295C165.041 143.373 164.955 138.016 164.784 132.961C164.419 122.245 165.216 111.479 167.119 100.939C167.176 100.387 166.375 100.162 166.29 100.687Z" fill="black"/>
<path d="M161.117 88.2639C158.506 90.4333 155.977 92.7137 153.587 95.1051C153.197 95.4899 153.803 96.0726 154.165 95.6877C156.583 93.2964 159.084 91.0159 161.696 88.8464C162.112 88.517 161.534 87.9344 161.117 88.2639Z" fill="black"/>
<path d="M153.334 95.8495C152.904 99.0508 155.327 101.768 158.564 101.756C159.09 101.758 159.094 100.93 158.568 100.927C155.773 100.942 153.792 98.5855 154.164 95.8534C154.25 95.3291 153.419 95.3252 153.334 95.8495Z" fill="black"/>
<path d="M154.11 95.6598C157.015 95.7561 159.023 98.3612 158.401 101.175C158.288 101.699 159.089 101.924 159.202 101.4C159.965 98.0066 157.6 94.958 154.114 94.8314C153.588 94.829 153.584 95.6574 154.11 95.6598Z" fill="black"/>
<path d="M159.535 101.263C162.703 98.4058 165.926 95.5764 169.011 92.6359C170.428 91.2893 171.791 89.9149 173.07 88.4296C173.766 87.632 175.517 86.0661 175.549 84.9616C175.55 84.8236 175.468 84.6575 175.357 84.6018C175.302 84.5739 175.247 84.546 175.219 84.5459C175.054 84.4623 174.832 84.4613 174.721 84.5988C174.693 84.6263 174.665 84.6538 174.637 84.7089C174.303 85.1216 174.882 85.7042 175.216 85.2915C175.244 85.264 175.271 85.2365 175.299 85.1814C175.133 85.2082 174.967 85.2351 174.801 85.2343C174.747 84.9855 174.664 84.9852 174.552 85.2608C174.412 85.4534 174.273 85.6461 174.106 85.8386C173.772 86.2513 173.466 86.6641 173.104 87.0767C172.548 87.7645 171.936 88.4244 171.352 89.0844C170.128 90.4043 168.85 91.641 167.543 92.85C164.709 95.4879 161.819 98.0427 158.957 100.653C158.54 101.038 159.146 101.62 159.535 101.263Z" fill="black"/>
<path d="M159.948 89.8049C160.148 88.4803 160.347 87.1557 160.547 85.8311C160.69 84.8377 160.806 83.7336 161.364 82.8525C162.646 80.815 164.438 82.2869 165.4 83.672C165.812 84.2539 166.197 84.8908 166.609 85.4726C166.829 85.805 167.903 86.9974 167.762 87.411C167.901 87.3011 168.04 87.2189 168.151 87.109C168.096 87.1087 168.068 87.1086 168.013 87.1083C167.487 87.0783 167.483 87.9067 168.009 87.9368C168.064 87.937 168.092 87.9372 168.147 87.9374C168.341 87.9383 168.508 87.801 168.536 87.6354C168.733 86.946 168.264 86.5296 167.907 85.9757C167.22 84.9507 166.561 83.8983 165.846 82.9009C165.104 81.8757 164.14 80.8771 162.756 81.0088C161.427 81.1407 160.62 82.1587 160.199 83.3442C159.498 85.3016 159.433 87.5381 159.119 89.5801C159.061 90.1045 159.862 90.3292 159.948 89.8049Z" fill="black"/>
<path d="M161.263 86.6906C162.003 88.1576 163.241 89.6546 165.012 89.7732C166.478 89.8904 167.865 89.0684 168.259 87.6343C168.4 87.1102 167.599 86.8856 167.458 87.4096C167.092 88.7335 165.623 89.2237 164.408 88.8039C163.247 88.3843 162.505 87.3591 161.984 86.3073C161.737 85.8091 161.016 86.22 161.263 86.6906Z" fill="black"/>
<path d="M162.312 81.3106C162.456 79.9581 164.007 79.6063 165.057 79.9702C166.162 80.3343 167.016 81.3323 167.787 82.1367C168.392 82.7747 169.578 83.6638 169.74 84.5482C169.956 85.7367 168.458 86.5306 167.461 86.8297C166.962 86.9655 167.152 87.7672 167.678 87.6315C168.897 87.2782 170.673 86.2094 170.874 84.7744C170.959 84.1949 170.601 83.8895 170.216 83.4735C169.445 82.6415 168.701 81.8372 167.902 81.0327C166.828 79.9231 165.45 78.7293 163.789 78.9978C162.543 79.1853 161.626 80.0095 161.482 81.2791C161.424 81.8311 162.254 81.835 162.312 81.3106Z" fill="black"/>
<path d="M163.815 79.2739C164.205 78.8339 164.401 78.2549 164.763 77.8147C165.653 76.7143 167.032 77.7424 167.942 78.4094C169.707 79.6602 171.579 81.9333 169.964 84.0797C169.657 84.5201 170.375 84.9377 170.681 84.4973C172.408 82.1856 170.732 79.4992 168.774 77.999C167.864 77.3044 166.487 76.0554 165.24 76.4086C164.131 76.7072 163.932 77.9766 163.237 78.719C162.875 79.0763 163.454 79.6589 163.815 79.2739Z" fill="black"/>
<path d="M166.622 76.774C167.596 75.591 168.874 74.3543 170.363 75.6038C171.355 76.4093 171.986 77.5444 172.341 78.7334C172.504 79.2313 173.28 79.0416 173.144 78.5162C172.681 76.9125 171.61 75.0573 170.009 74.3871C168.379 73.7169 167.017 75.0084 166.043 76.1914C165.709 76.5764 166.288 77.1866 166.622 76.774Z" fill="black"/>
<path d="M172.736 76.9127C174.459 75.4571 176.181 74.0015 177.903 72.5735C178.32 72.2165 177.714 71.6337 177.325 71.9909C175.603 73.4465 173.88 74.9021 172.158 76.3301C171.741 76.6872 172.347 77.2699 172.736 76.9127Z" fill="black"/>
<path d="M178.835 80.4756C180.473 79.2958 182.056 78.0328 183.529 76.6589C183.918 76.3017 183.34 75.7192 182.951 76.0764C181.506 77.3952 180.006 78.6309 178.424 79.7558C177.979 80.0575 178.391 80.7773 178.835 80.4756Z" fill="black"/>
<path d="M191.269 78.4621C200.5 78.5048 208.017 71.072 208.059 61.8605C208.102 52.649 200.654 45.147 191.423 45.1043C182.193 45.0616 174.676 52.4944 174.633 61.7059C174.59 70.9174 182.039 78.4194 191.269 78.4621Z" stroke="black" stroke-width="3" stroke-miterlimit="10"/>
<path d="M181.209 63.7798C187.37 59.887 193.669 56.2158 200.104 52.7661C200.576 52.5197 200.164 51.7999 199.693 52.0462C193.257 55.4683 186.959 59.1395 180.798 63.0599C180.353 63.3616 180.765 64.0815 181.209 63.7798Z" fill="black"/>
<path d="M181.867 71.0178C186.948 67.341 192.084 63.8025 197.33 60.3473C197.774 60.0456 197.362 59.3257 196.918 59.6274C191.7 63.0827 186.537 66.6487 181.456 70.298C181.012 70.5997 181.423 71.3196 181.867 71.0178Z" fill="black"/>
</g>
<defs>
<clipPath id="clip0_6_529">
<rect width="336" height="304" fill="white"/>
</clipPath>
</defs>
</svg>
